<svg id="Layer_1" height="512" viewBox="0 0 512 512" width="512" xmlns="http://www.w3.org/2000/svg" data-name="Layer 1"><path d="m423.9 181.7c-24.841-21.042-50.162-37.824-75.255-49.881-31.611-15.188-62.964-22.888-93.189-22.888s-61.578 7.7-93.188 22.888c-25.095 12.057-50.414 28.839-75.257 49.881-42.179 35.721-68.054 70.9-69.135 72.383a6 6 0 0 0 0 7.077c1.081 1.48 26.956 36.662 69.134 72.388 24.843 21.042 50.162 37.825 75.257 49.881 31.61 15.188 62.962 22.888 93.188 22.888s61.578-7.7 93.189-22.888c25.093-12.056 50.414-28.839 75.255-49.881 42.178-35.726 68.053-70.908 69.134-72.388a6 6 0 0 0 0-7.077c-1.081-1.483-26.956-36.662-69.133-72.383zm-7.755 142.7c-68.232 57.795-125.044 69.926-160.689 69.926-35.6 0-92.334-12.1-160.481-69.75a474.122 474.122 0 0 1 -64.707-66.956 473.4 473.4 0 0 1 64.5-66.768c68.232-57.8 125.045-69.926 160.689-69.926 35.6 0 92.334 12.1 160.481 69.75a474.243 474.243 0 0 1 64.706 66.947 473.4 473.4 0 0 1 -64.5 66.768z"/><path d="m255.455 123.952c-73.706 0-133.671 59.964-133.671 133.67s59.965 133.67 133.671 133.67 133.67-59.964 133.67-133.67-59.964-133.67-133.67-133.67zm0 255.34a121.67 121.67 0 1 1 121.67-121.67 121.808 121.808 0 0 1 -121.67 121.67z"/><path d="m255.455 203.789a53.833 53.833 0 1 0 53.833 53.833 53.893 53.893 0 0 0 -53.833-53.833zm0 95.666a41.833 41.833 0 1 1 41.833-41.833 41.881 41.881 0 0 1 -41.833 41.833z"/><path d="m226.182 168.666a93.2 93.2 0 0 1 10.4-2.764l-2.406-11.756a105.354 105.354 0 0 0 -11.74 3.12c-2.214.728-4.439 1.543-6.612 2.423l4.5 11.123c1.927-.78 3.898-1.502 5.858-2.146z"/><path d="m209.543 176.01-5.9-10.452c-2.024 1.141-4.037 2.556-5.985 3.83a105.407 105.407 0 0 0 -47.825 88.612h12a93.362 93.362 0 0 1 42.4-78.572c1.73-1.128 3.516-2.406 5.31-3.418z"/></svg>