<svg id="Layer_1" enable-background="new 0 0 512 512" height="512" viewBox="0 0 512 512" width="512" xmlns="http://www.w3.org/2000/svg"><g><path d="m197.515 231.513c0 32.877 26.689 59.624 59.495 59.624s59.495-26.747 59.495-59.624-26.689-59.624-59.495-59.624-59.495 26.747-59.495 59.624zm89.097 0c0 16.335-13.279 29.624-29.601 29.624s-29.601-13.289-29.601-29.624 13.279-29.624 29.601-29.624 29.601 13.289 29.601 29.624z"/><path d="m350.017 400.688c-9.778-18.186-34.446-4.598-27.123 12.614l20.965 45.401c9.447 18.036 34.427 4.9 27.123-12.614z"/><path d="m258.158 407.531c-8.255 0-14.947 6.716-14.947 15v50.109c1.238 20.595 29.311 18.739 29.894 0v-50.109c0-8.284-6.692-15-14.947-15z"/><path d="m186.313 392.675c-7.491-3.482-16.375-.213-19.846 7.303l-20.965 45.4c-7.55 18.278 17.895 29.935 27.123 12.614l20.965-45.4c3.47-7.517.212-16.434-7.277-19.917z"/><path d="m5.36 147.657c2.797 2.347 6.198 3.493 9.58 3.493 4.274 0 8.518-1.831 11.474-5.379 104.565-113.611 344.545-128.876 457.254-.686 5.026 6.572 14.41 7.81 20.958 2.765 6.548-5.044 7.781-14.461 2.755-21.032-125.632-145.14-388.805-127.051-503.9-.29-5.296 6.355-4.454 15.815 1.879 21.129z"/><path d="m509.899 223.85c-115.527-176.007-400.13-169.055-505.819.07-2.76 4.715-2.745 10.565.041 15.265 115.44 175.923 400.05 169.137 505.819-.07 2.761-4.715 2.745-10.565-.041-15.265zm-146.082 7.663c0 58.867-47.733 106.776-106.474 106.957-.818-.005-1.633-.012-2.446-.023-57.922-1.132-104.693-48.664-104.693-106.935-.146-59.705 49.892-108.738 109.77-106.918 57.528 1.578 103.843 48.933 103.843 106.919zm-328.967-.075c17.074-29.094 77.406-77.588 119.118-89.826-46.432 53.178-42.644 129.84-1.367 178.198-67.745-25.591-104.972-70.429-117.751-88.372zm393.548 52.403c-20.959 16.046-43.792 28.584-68.356 37.585 46.438-53.173 42.661-129.834 1.388-178.198 67.739 25.593 104.963 70.426 117.741 88.368-7.692 11.026-24.176 31.883-50.773 52.245z"/></g></svg>