<svg id="Capa_1" enable-background="new 0 0 512 512" height="512" viewBox="0 0 512 512" width="512" xmlns="http://www.w3.org/2000/svg"><g><path d="m223.787 126.993h-1.349c-25.445 0-46.147 20.702-46.147 46.147s20.702 46.147 46.147 46.147h1.349c25.446 0 46.147-20.702 46.147-46.147s-20.701-46.147-46.147-46.147zm0 72.295h-1.349c-14.418 0-26.147-11.729-26.147-26.147s11.729-26.147 26.147-26.147h1.349c14.418 0 26.147 11.729 26.147 26.147s-11.729 26.147-26.147 26.147z"/><path d="m259.935 237.18h-73.644c-5.522 0-10 4.478-10 10v182.62c0 5.522 4.478 10 10 10h73.644c5.522 0 10-4.478 10-10v-182.62c0-5.523-4.478-10-10-10zm-10 182.62h-53.644v-162.62h53.644z"/><path d="m222.62 60.315c-59.468 0-115.376 23.207-157.424 65.347-42.042 42.134-65.196 98.151-65.196 157.734 0 62.446 26.158 122.003 71.938 164.214l-3.571 40.966c-.294 3.367 1.134 6.654 3.794 8.739 2.661 2.085 6.192 2.685 9.394 1.595l43.646-14.871c30.452 14.891 63.206 22.438 97.42 22.438 59.468 0 115.375-23.207 157.423-65.347 42.042-42.134 65.196-98.151 65.196-157.734s-23.154-115.601-65.196-157.734c-42.049-42.14-97.956-65.347-157.424-65.347zm0 426.163c-32.449 0-63.444-7.453-92.123-22.153-1.426-.73-2.99-1.101-4.562-1.101-1.087 0-2.177.177-3.226.534l-33.087 11.273 2.672-30.646c.276-3.165-.969-6.273-3.353-8.373-43.813-38.583-68.941-94.209-68.941-152.616 0-111.979 90.895-203.081 202.62-203.081s202.619 91.102 202.619 203.081-90.894 203.082-202.619 203.082z"/><path d="m389.521 5.522c-5.522 0-10 4.478-10 10s4.478 10 10 10c56.507 0 102.479 46.082 102.479 102.725 0 5.522 4.478 10 10 10s10-4.478 10-10c0-67.671-54.944-122.725-122.479-122.725z"/><path d="m400.042 56.12c-5.522 0-10 4.478-10 10s4.478 10 10 10c22.867 0 41.471 18.654 41.471 41.583 0 5.522 4.478 10 10 10s10-4.478 10-10c0-33.957-27.575-61.583-61.471-61.583z"/></g></svg>