<svg id="Capa_1" enable-background="new 0 0 512 512" height="512" viewBox="0 0 512 512" width="512" xmlns="http://www.w3.org/2000/svg"><g><g><path d="m495.174 60.874h-31.503v-18.493c0-15.921-12.952-28.873-28.873-28.873s-28.873 12.952-28.873 28.873v18.493h-52.463v-18.493c0-15.921-12.952-28.873-28.872-28.873-15.905 0-28.845 12.952-28.845 28.873v18.493h-52.463v-18.493c0-15.921-12.952-28.873-28.873-28.873s-28.873 12.952-28.873 28.873v18.493h-52.463v-18.493c0-15.921-12.952-28.873-28.873-28.873s-28.873 12.952-28.873 28.873v18.493h-31.502c-9.262 0-16.797 7.535-16.797 16.798v89.179c0 6.576 3.794 12.267 9.297 15.033v116.901l-28.983 21.479c-4.726 3.487-7.334 8.206-7.342 13.287-.008 5.09 2.593 9.827 7.33 13.345l28.995 21.48v96.283c0 18.656 15.177 33.834 33.833 33.834h178.833c4.142 0 7.5-3.357 7.5-7.5s-3.358-7.5-7.5-7.5h-178.833c-10.385 0-18.833-8.449-18.833-18.834v-85.17l63.059 46.715c3.53 2.622 7.545 3.975 11.409 3.975 2.414 0 4.769-.528 6.908-1.604 5.38-2.705 8.593-8.438 8.593-15.335v-33.857h86.013c9.278 0 16.826-7.548 16.826-16.826v-57.94c0-9.294-7.548-16.854-16.826-16.854h-86.013v-33.857c0-6.89-3.214-12.619-8.598-15.327-5.565-2.8-12.581-1.896-18.305 2.356l-63.066 46.737v-103.996h197.667c4.142 0 7.5-3.357 7.5-7.5s-3.358-7.5-7.5-7.5h-205.167c-.974 0-1.797-.836-1.797-1.825v-17.615h454.972v17.615c0 .989-.836 1.825-1.826 1.825h-211.544c-4.143 0-7.5 3.357-7.5 7.5s3.357 7.5 7.5 7.5h204.044v280.982c0 10.385-8.448 18.834-18.833 18.834h-185.211c-4.143 0-7.5 3.357-7.5 7.5s3.357 7.5 7.5 7.5h185.211c18.655 0 33.833-15.178 33.833-33.834v-282.768c5.519-2.764 9.326-8.458 9.326-15.039v-89.179c0-9.263-7.548-16.798-16.826-16.798zm-371.846 192.105c1.463-1.087 2.467-1.064 2.572-1.042.103.108.394.702.394 1.966v41.357c0 4.143 3.358 7.5 7.5 7.5h93.513c.973 0 1.826.866 1.826 1.854v57.94c0 .99-.836 1.826-1.826 1.826h-93.513c-4.142 0-7.5 3.357-7.5 7.5v41.357c0 1.269-.292 1.868-.32 1.93-.172.062-1.181.082-2.653-1.012l-107.055-79.307c-.832-.618-1.135-1.081-1.233-1.271.099-.188.402-.642 1.227-1.251zm297.597-210.598c0-7.649 6.224-13.873 13.873-13.873s13.873 6.224 13.873 13.873v45.553c0 7.649-6.224 13.873-13.873 13.873s-13.873-6.224-13.873-13.873zm-110.18 0c0-7.649 6.211-13.873 13.845-13.873 7.649 0 13.872 6.224 13.872 13.873v45.553c0 7.649-6.223 13.873-13.872 13.873-7.634 0-13.845-6.224-13.845-13.873zm-110.208 0c0-7.649 6.223-13.873 13.873-13.873s13.873 6.224 13.873 13.873v45.553c0 7.649-6.223 13.873-13.873 13.873s-13.873-6.224-13.873-13.873zm-110.208 0c0-7.649 6.224-13.873 13.873-13.873s13.873 6.224 13.873 13.873v45.553c0 7.649-6.223 13.873-13.873 13.873s-13.873-6.224-13.873-13.873zm-48.301 91.854v-56.563c0-.975.823-1.798 1.797-1.798h31.503v12.06c0 15.921 12.952 28.873 28.873 28.873 15.92 0 28.873-12.952 28.873-28.873v-12.06h52.463v12.06c0 15.921 12.952 28.873 28.873 28.873s28.873-12.952 28.873-28.873v-12.06h52.463v12.06c0 15.921 12.939 28.873 28.845 28.873 15.92 0 28.872-12.952 28.872-28.873v-12.06h52.463v12.06c0 15.921 12.952 28.873 28.873 28.873s28.873-12.952 28.873-28.873v-12.06h31.503c.99 0 1.826.823 1.826 1.798v56.563z"/><path d="m321.387 379.381c9.277 0 16.825-7.548 16.825-16.826v-57.94c0-9.294-7.548-16.854-16.825-16.854h-33.845c-9.294 0-16.855 7.561-16.855 16.854v57.94c0 9.278 7.561 16.826 16.855 16.826zm-35.699-16.826v-57.94c0-1.005.85-1.854 1.855-1.854h33.845c.973 0 1.825.866 1.825 1.854v57.94c0 .99-.836 1.826-1.825 1.826h-33.845c-1.006 0-1.855-.836-1.855-1.826z"/><path d="m415.466 379.381c9.294 0 16.854-7.548 16.854-16.826v-57.94c0-9.294-7.561-16.854-16.854-16.854h-33.845c-9.293 0-16.854 7.561-16.854 16.854v57.94c0 9.278 7.561 16.826 16.854 16.826zm-35.698-16.826v-57.94c0-.988.866-1.854 1.854-1.854h33.845c.988 0 1.854.866 1.854 1.854v57.94c0 .99-.85 1.826-1.854 1.826h-33.845c-.988 0-1.854-.854-1.854-1.826z"/></g></g></svg>