<svg id="Capa_1" enable-background="new 0 0 507.311 507.311" height="512" viewBox="0 0 507.311 507.311" width="512" xmlns="http://www.w3.org/2000/svg"><g><g id="Page-1_74_"><g id="_x30_75---Love-Comment"><g clip-rule="evenodd" fill-rule="evenodd"><path id="Path_193_" d="m83.002 68.267h221.867c4.713 0 8.533-3.821 8.533-8.533s-3.82-8.533-8.533-8.533h-221.867c-4.713 0-8.533 3.821-8.533 8.533s3.82 8.533 8.533 8.533z"/><path id="Path_192_" d="m83.002 110.933h221.867c4.713 0 8.533-3.821 8.533-8.533 0-4.713-3.82-8.533-8.533-8.533h-221.867c-4.713 0-8.533 3.821-8.533 8.533-.001 4.713 3.82 8.533 8.533 8.533z"/><path id="Path_191_" d="m83.002 153.6h221.867c4.713 0 8.533-3.821 8.533-8.533 0-4.713-3.82-8.533-8.533-8.533h-221.867c-4.713 0-8.533 3.821-8.533 8.533-.001 4.712 3.82 8.533 8.533 8.533z"/><path id="Path_190_" d="m83.002 196.267h221.867c4.713 0 8.533-3.821 8.533-8.533 0-4.713-3.82-8.533-8.533-8.533h-221.867c-4.713 0-8.533 3.821-8.533 8.533-.001 4.712 3.82 8.533 8.533 8.533z"/><path id="Path_189_" d="m313.402 230.4c0-4.713-3.82-8.533-8.533-8.533h-221.867c-4.713 0-8.533 3.82-8.533 8.533s3.821 8.533 8.533 8.533h221.867c4.712 0 8.533-3.82 8.533-8.533z"/></g><path id="Shape_178_" d="m364.602 247.902v-205.235c-.029-23.553-19.115-42.639-42.667-42.667h-256c-23.552.028-42.638 19.114-42.667 42.667v204.8c.028 23.552 19.114 42.638 42.667 42.667h8.533v42.666c-.007 6.422 3.591 12.305 9.312 15.223s12.595 2.378 17.79-1.399l78.063-56.491h81.297c-40.27 44.566-43.926 111.211-8.772 159.915 3.115 14.857 15.445 36.565 56.32 56.405 2.354 1.144 5.104 1.144 7.458 0 4.267-2.065 8.081-4.156 11.733-6.246 9.313 2.156 18.84 3.25 28.399 3.26 69.008.027 125.599-54.685 127.902-123.654s-50.512-127.335-119.368-131.911zm-187.734 25.165c-1.795-.002-3.545.563-5.001 1.613l-80.332 58.12v-51.2c0-4.713-3.821-8.533-8.533-8.533h-17.067c-14.138 0-25.6-11.462-25.6-25.6v-204.8c0-14.138 11.462-25.6 25.6-25.6h256c14.138 0 25.6 11.462 25.6 25.6v205.235c-24.61 1.615-48.218 10.359-67.942 25.165zm135.305 216.175c-27.955-14.362-43.895-31.676-43.895-47.881-.386-5.034 1.271-10.011 4.598-13.808s8.043-6.095 13.083-6.373c7.484-.015 14.564 3.396 19.217 9.259 1.591 2.258 4.176 3.606 6.938 3.618 2.771-.109 5.354-1.429 7.066-3.61 4.641-5.873 11.723-9.29 19.209-9.267 5.041.279 9.757 2.576 13.083 6.373 3.327 3.797 4.984 8.774 4.598 13.808-.002 16.196-15.942 33.519-43.897 47.881zm43.895-2.842c-2.56 0-5.12-.307-7.731-.486 20.838-17.673 24.798-34.5 24.798-44.553.425-9.572-3.018-18.913-9.554-25.919s-15.615-11.089-25.193-11.329c-9.555-.025-18.822 3.272-26.214 9.327-7.391-6.056-16.659-9.353-26.214-9.327-12.775.093-24.418 7.346-30.131 18.773-21.104-44.632-10.172-97.84 26.819-130.537s91.139-37.013 132.842-10.589c41.704 26.424 60.926 77.228 47.16 124.64s-57.211 80.021-106.582 80z"/><path id="Path_188_" clip-rule="evenodd" d="m287.802 324.267c.702-.001 1.401-.087 2.082-.256 34.671-8.67 44.919-17.604 46.626-19.311 3.236-3.255 3.274-8.5.085-11.802-3.223-3.316-8.482-3.515-11.947-.452-.077.077-8.661 7.458-38.895 15.01-4.175 1.046-6.917 5.037-6.396 9.309s4.141 7.488 8.445 7.502z" fill-rule="evenodd"/><path id="Path_187_" clip-rule="evenodd" d="m330.468 341.333c0-4.713-3.821-8.533-8.533-8.533h-34.133c-4.713 0-8.533 3.82-8.533 8.533s3.82 8.533 8.533 8.533h34.133c4.713.001 8.533-3.82 8.533-8.533z" fill-rule="evenodd"/><path id="Path_186_" clip-rule="evenodd" d="m422.27 324.011c.676.168 1.369.254 2.065.256 4.305-.009 7.93-3.224 8.452-7.497.523-4.273-2.22-8.267-6.396-9.314-29.474-7.373-38.4-14.566-38.869-14.993-3.388-3.228-8.743-3.125-12.005.23s-3.213 8.711.109 12.006c1.716 1.707 11.964 10.642 46.644 19.312z" fill-rule="evenodd"/><path id="Path_185_" clip-rule="evenodd" d="m424.335 332.8h-34.133c-4.713 0-8.533 3.82-8.533 8.533s3.821 8.533 8.533 8.533h34.133c4.713 0 8.533-3.821 8.533-8.533s-3.82-8.533-8.533-8.533z" fill-rule="evenodd"/><path id="Path_184_" clip-rule="evenodd" d="m381.933 358.562c-4.62-.038-8.473 3.523-8.798 8.132-.094 1.468-1.365 8.772-17.067 8.772-15.701 0-16.973-7.313-17.067-8.533 0-4.713-3.821-8.533-8.533-8.533-4.713 0-8.533 3.82-8.533 8.533 0 8.858 7.134 25.6 34.133 25.6s34.133-16.742 34.133-25.6c-.017-4.576-3.693-8.297-8.268-8.371z" fill-rule="evenodd"/></g></g></g></svg>