<svg id="Capa_1" enable-background="new 0 0 511.935 511.935" height="512" viewBox="0 0 511.935 511.935" width="512" xmlns="http://www.w3.org/2000/svg"><g><path d="m501.323 255.206c-29.252-29.252-76.85-29.253-106.102 0l-48.225 48.225c-6.007 6.007-13.413 10.106-21.483 11.994v-58.815h-166.946c-20.032 0-38.867 7.801-53.033 21.967l-105.534 105.534 111.215 111.213 88.713-88.714h115.252c36.057 0 69.932-14.016 95.385-39.465 65.819-65.814 97.469-97.429 101.37-101.328zm-111.97 90.725c-19.787 19.784-46.129 30.679-74.173 30.679h-127.678l-76.287 76.288-68.788-68.787 84.32-84.32c8.5-8.5 19.801-13.18 31.82-13.18h136.946v30h-101.798v30h121.463c20.033 0 38.867-7.801 53.032-21.967l48.225-48.224c13.836-13.836 34.513-16.766 51.247-8.793-24.035 24.018-54.877 54.854-78.329 78.304z"/><path d="m384.914 16.61h-210v210h210zm-30 180h-150v-150h60v60h30v-60h60z"/></g></svg>