<svg id="Capa_1" enable-background="new 0 0 512 512" height="512" viewBox="0 0 512 512" width="512" xmlns="http://www.w3.org/2000/svg"><g><path d="m305.409 125.647 35.082 25.954c3.949 2.921 1.953 9.385-3.04 9.416l-11.009.067c-.011 0-.021 0-.032 0-2.832 0-5.144-2.292-5.162-5.124-.051-8.284-6.803-14.975-15.091-14.907-8.284.051-14.958 6.808-14.908 15.092.099 16.005 10.937 29.469 25.623 33.615v.726c0 8.284 6.716 15 14.999 15s14.999-6.716 14.999-15v-.757c5.844-1.62 11.194-4.736 15.57-9.168 6.602-6.686 10.204-15.542 10.139-24.961v-.094c-.075-11.002-5.401-21.478-14.247-28.022l-35.081-25.953c-3.984-2.948-1.891-9.3 3.072-9.3h11.026c2.847 0 5.163 2.313 5.163 5.156 0 8.284 6.716 15 14.999 15s14.999-6.716 14.999-15c0-16.085-10.866-29.673-25.641-33.835v-.722c0-8.284-6.716-15-14.999-15s-14.999 6.716-14.999 15v.702c-14.81 4.139-25.71 17.744-25.71 33.855.001 11.095 5.327 21.659 14.248 28.26z"/><path d="m331.871 253.315c69.858 0 126.69-56.818 126.69-126.658s-56.833-126.657-126.69-126.657-126.69 56.818-126.69 126.658 56.833 126.657 126.69 126.657zm0-223.315c53.316 0 96.691 43.361 96.691 96.658s-43.375 96.658-96.691 96.658c-53.315 0-96.691-43.361-96.691-96.658s43.376-96.658 96.691-96.658z"/><path d="m501.685 287.186c-16.223-20.886-45.511-24.815-66.593-10.189l-57.071 38.181c-7.931-14.767-23.525-24.833-41.43-24.833h-40.711c-20.55-19.274-47.985-30.217-76.283-30.217-21.239 0-41.9 6-59.747 17.352-16.081 10.229-29.235 24.359-38.274 41.041l-7.642 4.673-1.98-5.791c-2.68-7.837-11.204-12.02-19.042-9.342l-82.759 28.279c-7.835 2.677-12.023 11.208-9.343 19.047l50.073 146.462c2.681 7.842 11.208 12.018 19.042 9.342l82.759-28.277c7.391-2.526 12.233-10.593 9.177-19.532l131.321-4.065c35.763-.048 70.059-11.031 99.191-31.766l99.032-70.442c22.704-16.161 27.391-47.909 10.28-69.923zm-427.268 190.767-40.368-118.075 54.371-18.578c5.857 17.132 34.323 100.393 40.368 118.076zm399.597-145.289-99.032 70.442c-24.091 17.147-52.46 26.21-82.038 26.21-.154 0-.31.002-.464.007l-140.773 4.357-27.83-81.403 16.915-10.344c.004-.002.007-.005.011-.008 2.49-1.524 4.437-3.761 5.625-6.182 13.805-28.137 41.842-45.617 73.169-45.617 22.638 0 43.664 9.063 59.205 25.519 2.862 3.032 6.974 4.697 10.905 4.697h46.884c9.372 0 16.996 7.62 16.996 16.987 0 9.269-7.497 16.987-16.996 16.987h-84.629c-8.284 0-14.999 6.716-14.999 15s6.716 15 14.999 15h84.629c12.563 0 24.366-4.892 33.225-13.764 6.198-6.196 10.445-13.818 12.449-22.122l69.621-46.577c.084-.056.167-.113.25-.171 8.21-5.735 19.582-4.174 25.861 3.909 6.621 8.52 4.811 20.814-3.983 27.073z"/></g></svg>